<svg height="512" viewBox="0 0 64 64" width="512" xmlns="http://www.w3.org/2000/svg"><path d="M50.385 18.615a.999.999 0 00-1.414 0L33 34.586V12a1 1 0 00-1-1C17.664 11 6 22.664 6 37s11.664 26 26 26 26-11.664 26-26c0-6.945-2.705-13.474-7.615-18.385zm-2.146 33.21A21.913 21.913 0 0053.974 38h2.001c-.242 5.864-2.599 11.189-6.325 15.236zM8.025 36c.242-5.864 2.599-11.189 6.325-15.236l1.411 1.411A21.913 21.913 0 0010.026 36zm9.166-12.395L29.586 36H12.051a19.89 19.89 0 015.14-12.395zM31 34.586L18.605 22.191A19.889 19.889 0 0131 17.05zM29.586 38L17.191 50.395A19.888 19.888 0 0112.051 38zM31 39.414v17.535a19.896 19.896 0 01-12.395-5.14zm2 0l12.395 12.395A19.889 19.889 0 0133 56.95zM34.414 38h17.535a19.891 19.891 0 01-5.141 12.395zm0-2l12.401-12.4A19.803 19.803 0 0151.951 36zm15.25-15.249c3.867 4.196 6.057 9.548 6.29 15.249h-2.003a21.793 21.793 0 00-5.722-13.814zM31 15.025a21.916 21.916 0 00-13.825 5.735l-1.412-1.412c4.048-3.727 9.372-6.087 15.237-6.328zM8.048 38h1.977a21.913 21.913 0 005.735 13.825l-1.416 1.416A23.903 23.903 0 018.048 38zm7.711 16.655l1.416-1.416A21.913 21.913 0 0031 58.974v2.005a23.905 23.905 0 01-15.241-6.324zM33 58.975a21.916 21.916 0 0013.825-5.735l1.412 1.412C44.189 58.379 38.865 60.739 33 60.98z"/><path d="M35.617 27.924a1.006 1.006 0 001.09-.217l17.678-17.678a1 1 0 000-1.414C49.474 3.705 42.944 1 36 1a1 1 0 00-1 1v25c0 .404.244.769.617.924zM37 7.049a19.814 19.814 0 0112.4 5.136L37 24.586zm15.249 2.287l-1.435 1.435A21.787 21.787 0 0037 5.049V3.021a23.805 23.805 0 0115.249 6.315z"/><circle cx="47" cy="29" r="2"/><circle cx="48" cy="41" r="2"/><circle cx="37" cy="48" r="2"/><circle cx="26" cy="52" r="2"/><circle cx="17" cy="42" r="2"/><circle cx="18" cy="29" r="2"/><circle cx="28" cy="27" r="2"/><path d="M22.683 22.932l.632-1.898 3 1-.631 1.897zM27 19h2v2h-2z"/><circle cx="41" cy="13" r="2"/><path d="M39 17h2v2h-2zm5-5h2v2h-2zm-2.544 20.843l1.11-1.664 3 2.002-1.11 1.664zM48 32h2v2h-2zm-8.716 8.707l1.414-1.414 2 2-1.414 1.414zm5.241 5.197l.894-1.788 1.998 1-.894 1.787zM36 52h2v2h-2zm3.523-.1l.894-1.787 1.998 1-.894 1.787zm-13.238-4.61l2-1.999 1.414 1.414-2 2zM21 40h2v2h-2zm-1-8h3v2h-3zm-5.911 1.552l1-1.998 1.787.894-1 1.998z"/></svg>